<svg xmlns="http://www.w3.org/2000/svg" xmlns:xlink="http://www.w3.org/1999/xlink" width="3350" height="143.105" viewBox="0 0 3350 143.105">
  <defs>
    <linearGradient id="linear-gradient" y1="0.5" x2="1" y2="0.5" gradientUnits="objectBoundingBox">
      <stop offset="0" stop-color="#292929" stop-opacity="0.6"/>
      <stop offset="0.316" stop-color="#292929" stop-opacity="0.6"/>
      <stop offset="0.381" stop-color="#1b222d" stop-opacity="0.878"/>
      <stop offset="0.438" stop-color="#1b222d" stop-opacity="0.949"/>
      <stop offset="0.462" stop-color="#1b222d" stop-opacity="0.949"/>
      <stop offset="0.488" stop-color="#1b222d" stop-opacity="0.627"/>
      <stop offset="0.534" stop-color="#1b222d" stop-opacity="0"/>
      <stop offset="0.603" stop-color="#101823" stop-opacity="0"/>
      <stop offset="0.664" stop-color="#101823" stop-opacity="0.82"/>
      <stop offset="0.681" stop-color="#101823" stop-opacity="0.949"/>
      <stop offset="0.701" stop-color="#101823" stop-opacity="0.949"/>
      <stop offset="0.755" stop-color="#101823" stop-opacity="0.878"/>
      <stop offset="0.816" stop-color="#292929" stop-opacity="0.6"/>
      <stop offset="1" stop-color="#292929" stop-opacity="0.6"/>
    </linearGradient>
  </defs>
  <path id="Bar_Main" data-name="Bar Main" d="M931-345.188l1247.98.026,48.068,46.2v13.987l34.1,34.24s230.679.173,236.176.073,16.386-21.844,27.559-21.834,107.677-.026,118.7,0,20.69,21.826,26.559,21.833,318.462-.073,362.853-.073c5.159.039,13.654-22.084,24.018-22.241s108.05.077,120.565,0,21.936,22.208,28.7,22.239h232.707l35.952-36.479V-299.1l46.071-45.837,759.994-.2v-48.6H931Z" transform="translate(-931 393.732)" fill="url(#linear-gradient)"/>
</svg>
