<svg xmlns="http://www.w3.org/2000/svg" width="18.193" height="21.001" viewBox="0 0 18.193 21.001">
  <path id="Defused" d="M2.643,21H0V19.864H1.142l0-.015c.167-.783,1.654-7.676,2.28-8.459A3.262,3.262,0,0,1,4.673,10.4a2.125,2.125,0,0,1,.82-.183.88.88,0,0,1,.1,0V9.087L3.751,7.932V3.392L6.792,0H7.917V6.329L9.088,7.4l1.149-1.073V0h1.057l2.958,3.392v4.54l-1.77,1.155v1.131h0a1.243,1.243,0,0,1,.239-.022,2.822,2.822,0,0,1,2.1,1.2c1.051,1.238,2.217,8.394,2.229,8.466h1.137V21H15.877L9.088,11.935,2.643,21ZM9.072,8.54a1.137,1.137,0,1,0,1.137,1.137A1.138,1.138,0,0,0,9.072,8.54Z" fill="#fff"/>
</svg>
